<svg width="141" height="24" viewBox="0 0 141 24" fill="none" xmlns="http://www.w3.org/2000/svg">
<path d="M20.285 2L9 13.567L3.714 8.556L0 12.272L9 21L24 5.715L20.285 2Z" fill="#00CA51"/>
<path d="M42.58 12.525C43.22 12.715 43.71 13.025 44.05 13.455C44.39 13.885 44.56 14.415 44.56 15.045C44.56 15.975 44.205 16.7 43.495 17.22C42.795 17.74 41.79 18 40.48 18H35.305V7.5H40.195C41.415 7.5 42.365 7.735 43.045 8.205C43.725 8.675 44.065 9.345 44.065 10.215C44.065 10.735 43.935 11.195 43.675 11.595C43.415 11.985 43.05 12.295 42.58 12.525ZM37.72 11.85H39.985C40.515 11.85 40.915 11.745 41.185 11.535C41.455 11.315 41.59 10.995 41.59 10.575C41.59 10.165 41.45 9.85 41.17 9.63C40.9 9.41 40.505 9.3 39.985 9.3H37.72V11.85ZM40.39 16.2C41.53 16.2 42.1 15.75 42.1 14.85C42.1 13.98 41.53 13.545 40.39 13.545H37.72V16.2H40.39ZM50.5498 9.93H52.8748V14.73L56.8048 9.93H58.9498V18H56.6248V13.2L52.7098 18H50.5498V9.93ZM66.361 13.8C66.841 13.95 67.211 14.18 67.471 14.49C67.741 14.8 67.876 15.17 67.876 15.6C67.876 16.11 67.701 16.56 67.351 16.95C67.001 17.33 66.521 17.625 65.911 17.835C65.301 18.045 64.611 18.15 63.841 18.15C63.211 18.15 62.591 18.085 61.981 17.955C61.371 17.825 60.806 17.63 60.286 17.37L60.916 15.735C61.766 16.145 62.706 16.35 63.736 16.35C64.286 16.35 64.716 16.27 65.026 16.11C65.346 15.94 65.506 15.705 65.506 15.405C65.506 15.145 65.396 14.95 65.176 14.82C64.956 14.68 64.636 14.61 64.216 14.61H62.566V13.155H64.006C64.416 13.155 64.731 13.09 64.951 12.96C65.171 12.83 65.281 12.64 65.281 12.39C65.281 12.13 65.141 11.93 64.861 11.79C64.591 11.65 64.201 11.58 63.691 11.58C62.911 11.58 62.061 11.765 61.141 12.135L60.571 10.515C61.691 10.025 62.781 9.78 63.841 9.78C64.571 9.78 65.221 9.87 65.791 10.05C66.371 10.23 66.826 10.495 67.156 10.845C67.486 11.185 67.651 11.585 67.651 12.045C67.651 12.425 67.536 12.77 67.306 13.08C67.076 13.38 66.761 13.62 66.361 13.8ZM74.2431 10.485C75.0131 10.485 75.6881 10.645 76.2681 10.965C76.8481 11.275 77.2931 11.715 77.6031 12.285C77.9231 12.855 78.0831 13.515 78.0831 14.265C78.0831 15.035 77.8931 15.72 77.5131 16.32C77.1431 16.91 76.6231 17.37 75.9531 17.7C75.2831 18.02 74.5231 18.18 73.6731 18.18C72.2631 18.18 71.1531 17.73 70.3431 16.83C69.5431 15.92 69.1431 14.59 69.1431 12.84C69.1431 11.22 69.4931 9.93 70.1931 8.97C70.9031 8 71.9881 7.365 73.4481 7.065L77.2881 6.3L77.6031 8.31L74.2131 8.985C73.2931 9.165 72.6081 9.465 72.1581 9.885C71.7181 10.305 71.4581 10.9 71.3781 11.67C71.7281 11.29 72.1481 11 72.6381 10.8C73.1281 10.59 73.6631 10.485 74.2431 10.485ZM73.6881 16.365C74.2881 16.365 74.7681 16.17 75.1281 15.78C75.4981 15.39 75.6831 14.895 75.6831 14.295C75.6831 13.685 75.4981 13.2 75.1281 12.84C74.7681 12.48 74.2881 12.3 73.6881 12.3C73.0781 12.3 72.5881 12.48 72.2181 12.84C71.8481 13.2 71.6631 13.685 71.6631 14.295C71.6631 14.905 71.8531 15.405 72.2331 15.795C72.6131 16.175 73.0981 16.365 73.6881 16.365ZM84.4259 9.81C85.1759 9.81 85.8559 9.985 86.4659 10.335C87.0859 10.675 87.5709 11.16 87.9209 11.79C88.2709 12.41 88.4459 13.135 88.4459 13.965C88.4459 14.795 88.2709 15.525 87.9209 16.155C87.5709 16.775 87.0859 17.26 86.4659 17.61C85.8559 17.95 85.1759 18.12 84.4259 18.12C83.3959 18.12 82.5859 17.795 81.9959 17.145V20.91H79.6559V9.93H81.8909V10.86C82.4709 10.16 83.3159 9.81 84.4259 9.81ZM84.0209 16.2C84.6209 16.2 85.1109 16 85.4909 15.6C85.8809 15.19 86.0759 14.645 86.0759 13.965C86.0759 13.285 85.8809 12.745 85.4909 12.345C85.1109 11.935 84.6209 11.73 84.0209 11.73C83.4209 11.73 82.9259 11.935 82.5359 12.345C82.1559 12.745 81.9659 13.285 81.9659 13.965C81.9659 14.645 82.1559 15.19 82.5359 15.6C82.9259 16 83.4209 16.2 84.0209 16.2ZM93.0891 9.81C94.3391 9.81 95.2991 10.11 95.9691 10.71C96.6391 11.3 96.9741 12.195 96.9741 13.395V18H94.7841V16.995C94.3441 17.745 93.5241 18.12 92.3241 18.12C91.7041 18.12 91.1641 18.015 90.7041 17.805C90.2541 17.595 89.9091 17.305 89.6691 16.935C89.4291 16.565 89.3091 16.145 89.3091 15.675C89.3091 14.925 89.5891 14.335 90.1491 13.905C90.7191 13.475 91.5941 13.26 92.7741 13.26H94.6341C94.6341 12.75 94.4791 12.36 94.1691 12.09C93.8591 11.81 93.3941 11.67 92.7741 11.67C92.3441 11.67 91.9191 11.74 91.4991 11.88C91.0891 12.01 90.7391 12.19 90.4491 12.42L89.6091 10.785C90.0491 10.475 90.5741 10.235 91.1841 10.065C91.8041 9.895 92.4391 9.81 93.0891 9.81ZM92.9091 16.545C93.3091 16.545 93.6641 16.455 93.9741 16.275C94.2841 16.085 94.5041 15.81 94.6341 15.45V14.625H93.0291C92.0691 14.625 91.5891 14.94 91.5891 15.57C91.5891 15.87 91.7041 16.11 91.9341 16.29C92.1741 16.46 92.4991 16.545 92.9091 16.545ZM99.0068 9.93H101.332V13.08H104.842V9.93H107.182V18H104.842V14.985H101.332V18H99.0068V9.93ZM109.422 9.93H111.747V13.08H115.257V9.93H117.597V18H115.257V14.985H111.747V18H109.422V9.93ZM123.617 18.12C122.767 18.12 122.002 17.945 121.322 17.595C120.652 17.235 120.127 16.74 119.747 16.11C119.367 15.48 119.177 14.765 119.177 13.965C119.177 13.165 119.367 12.45 119.747 11.82C120.127 11.19 120.652 10.7 121.322 10.35C122.002 9.99 122.767 9.81 123.617 9.81C124.467 9.81 125.227 9.99 125.897 10.35C126.567 10.7 127.092 11.19 127.472 11.82C127.852 12.45 128.042 13.165 128.042 13.965C128.042 14.765 127.852 15.48 127.472 16.11C127.092 16.74 126.567 17.235 125.897 17.595C125.227 17.945 124.467 18.12 123.617 18.12ZM123.617 16.2C124.217 16.2 124.707 16 125.087 15.6C125.477 15.19 125.672 14.645 125.672 13.965C125.672 13.285 125.477 12.745 125.087 12.345C124.707 11.935 124.217 11.73 123.617 11.73C123.017 11.73 122.522 11.935 122.132 12.345C121.742 12.745 121.547 13.285 121.547 13.965C121.547 14.645 121.742 15.19 122.132 15.6C122.522 16 123.017 16.2 123.617 16.2ZM137.526 18V13.17L135.111 17.22H134.121L131.766 13.155V18H129.651V9.93H132.096L134.676 14.595L137.421 9.93H139.611L139.641 18H137.526Z" fill="#00CA51"/>
</svg>
