<svg width="241" height="41" viewBox="0 0 241 41" fill="none" xmlns="http://www.w3.org/2000/svg">
<rect width="241" height="41" rx="5" fill="#00A3FF"/>
<rect x="0.5" y="0.5" width="240" height="40" rx="4.5" stroke="#A2A2A2" stroke-opacity="0.6"/>
<path d="M55.135 24.02V28.175H52.885V26H45.475V28.175H43.225L43.24 24.02H43.66C44.29 24 44.735 23.54 44.995 22.64C45.255 21.74 45.415 20.455 45.475 18.785L45.595 15.5H53.665V24.02H55.135ZM47.62 19.01C47.57 20.26 47.465 21.31 47.305 22.16C47.145 23 46.9 23.62 46.57 24.02H51.265V17.48H47.665L47.62 19.01ZM60.2683 26.12C59.4183 26.12 58.6533 25.945 57.9733 25.595C57.3033 25.235 56.7783 24.74 56.3983 24.11C56.0183 23.48 55.8283 22.765 55.8283 21.965C55.8283 21.165 56.0183 20.45 56.3983 19.82C56.7783 19.19 57.3033 18.7 57.9733 18.35C58.6533 17.99 59.4183 17.81 60.2683 17.81C61.1183 17.81 61.8783 17.99 62.5483 18.35C63.2183 18.7 63.7433 19.19 64.1233 19.82C64.5033 20.45 64.6933 21.165 64.6933 21.965C64.6933 22.765 64.5033 23.48 64.1233 24.11C63.7433 24.74 63.2183 25.235 62.5483 25.595C61.8783 25.945 61.1183 26.12 60.2683 26.12ZM60.2683 24.2C60.8683 24.2 61.3583 24 61.7383 23.6C62.1283 23.19 62.3233 22.645 62.3233 21.965C62.3233 21.285 62.1283 20.745 61.7383 20.345C61.3583 19.935 60.8683 19.73 60.2683 19.73C59.6683 19.73 59.1733 19.935 58.7833 20.345C58.3933 20.745 58.1983 21.285 58.1983 21.965C58.1983 22.645 58.3933 23.19 58.7833 23.6C59.1733 24 59.6683 24.2 60.2683 24.2ZM70.9677 18.485C71.7377 18.485 72.4127 18.645 72.9927 18.965C73.5727 19.275 74.0177 19.715 74.3277 20.285C74.6477 20.855 74.8077 21.515 74.8077 22.265C74.8077 23.035 74.6177 23.72 74.2377 24.32C73.8677 24.91 73.3477 25.37 72.6777 25.7C72.0077 26.02 71.2477 26.18 70.3977 26.18C68.9877 26.18 67.8777 25.73 67.0677 24.83C66.2677 23.92 65.8677 22.59 65.8677 20.84C65.8677 19.22 66.2177 17.93 66.9177 16.97C67.6277 16 68.7127 15.365 70.1727 15.065L74.0127 14.3L74.3277 16.31L70.9377 16.985C70.0177 17.165 69.3327 17.465 68.8827 17.885C68.4427 18.305 68.1827 18.9 68.1027 19.67C68.4527 19.29 68.8727 19 69.3627 18.8C69.8527 18.59 70.3877 18.485 70.9677 18.485ZM70.4127 24.365C71.0127 24.365 71.4927 24.17 71.8527 23.78C72.2227 23.39 72.4077 22.895 72.4077 22.295C72.4077 21.685 72.2227 21.2 71.8527 20.84C71.4927 20.48 71.0127 20.3 70.4127 20.3C69.8027 20.3 69.3127 20.48 68.9427 20.84C68.5727 21.2 68.3877 21.685 68.3877 22.295C68.3877 22.905 68.5777 23.405 68.9577 23.795C69.3377 24.175 69.8227 24.365 70.4127 24.365ZM79.3987 17.81C80.6487 17.81 81.6087 18.11 82.2787 18.71C82.9487 19.3 83.2837 20.195 83.2837 21.395V26H81.0937V24.995C80.6537 25.745 79.8337 26.12 78.6337 26.12C78.0137 26.12 77.4737 26.015 77.0137 25.805C76.5637 25.595 76.2187 25.305 75.9787 24.935C75.7387 24.565 75.6187 24.145 75.6187 23.675C75.6187 22.925 75.8987 22.335 76.4587 21.905C77.0287 21.475 77.9037 21.26 79.0837 21.26H80.9437C80.9437 20.75 80.7887 20.36 80.4787 20.09C80.1687 19.81 79.7037 19.67 79.0837 19.67C78.6537 19.67 78.2287 19.74 77.8087 19.88C77.3987 20.01 77.0487 20.19 76.7587 20.42L75.9187 18.785C76.3587 18.475 76.8837 18.235 77.4937 18.065C78.1137 17.895 78.7487 17.81 79.3987 17.81ZM79.2187 24.545C79.6187 24.545 79.9737 24.455 80.2837 24.275C80.5937 24.085 80.8137 23.81 80.9437 23.45V22.625H79.3387C78.3787 22.625 77.8987 22.94 77.8987 23.57C77.8987 23.87 78.0137 24.11 78.2437 24.29C78.4837 24.46 78.8087 24.545 79.2187 24.545ZM91.4814 21.785C92.4314 22.105 92.9064 22.745 92.9064 23.705C92.9064 24.435 92.6314 25 92.0814 25.4C91.5314 25.8 90.7114 26 89.6214 26H85.3164V17.93H89.4414C90.4514 17.93 91.2414 18.115 91.8114 18.485C92.3814 18.845 92.6664 19.355 92.6664 20.015C92.6664 20.415 92.5614 20.77 92.3514 21.08C92.1514 21.38 91.8614 21.615 91.4814 21.785ZM87.4614 21.245H89.2314C90.0514 21.245 90.4614 20.955 90.4614 20.375C90.4614 19.805 90.0514 19.52 89.2314 19.52H87.4614V21.245ZM89.4264 24.41C90.2864 24.41 90.7164 24.115 90.7164 23.525C90.7164 23.215 90.6164 22.99 90.4164 22.85C90.2164 22.7 89.9014 22.625 89.4714 22.625H87.4614V24.41H89.4264ZM94.6475 17.93H96.9725V22.73L100.902 17.93H103.047V26H100.722V21.2L96.8075 26H94.6475V17.93ZM112.077 19.85H109.347V26H107.022V19.85H104.292V17.93H112.077V19.85ZM117.689 20.51C118.739 20.52 119.544 20.76 120.104 21.23C120.664 21.69 120.944 22.345 120.944 23.195C120.944 24.085 120.629 24.78 119.999 25.28C119.379 25.77 118.504 26.015 117.374 26.015L113.324 26V17.93H115.649V20.51H117.689ZM117.164 24.35C117.614 24.36 117.959 24.265 118.199 24.065C118.439 23.865 118.559 23.565 118.559 23.165C118.559 22.775 118.439 22.49 118.199 22.31C117.969 22.13 117.624 22.035 117.164 22.025L115.649 22.01V24.35H117.164ZM132.819 21.785C133.769 22.105 134.244 22.745 134.244 23.705C134.244 24.435 133.969 25 133.419 25.4C132.869 25.8 132.049 26 130.959 26H126.654V17.93H130.779C131.789 17.93 132.579 18.115 133.149 18.485C133.719 18.845 134.004 19.355 134.004 20.015C134.004 20.415 133.899 20.77 133.689 21.08C133.489 21.38 133.199 21.615 132.819 21.785ZM128.799 21.245H130.569C131.389 21.245 131.799 20.955 131.799 20.375C131.799 19.805 131.389 19.52 130.569 19.52H128.799V21.245ZM130.764 24.41C131.624 24.41 132.054 24.115 132.054 23.525C132.054 23.215 131.954 22.99 131.754 22.85C131.554 22.7 131.239 22.625 130.809 22.625H128.799V24.41H130.764ZM140.233 17.93H142.558V22.73L146.488 17.93H148.633V26H146.308V21.2L142.393 26H140.233V17.93ZM156.045 21.8C156.525 21.95 156.895 22.18 157.155 22.49C157.425 22.8 157.56 23.17 157.56 23.6C157.56 24.11 157.385 24.56 157.035 24.95C156.685 25.33 156.205 25.625 155.595 25.835C154.985 26.045 154.295 26.15 153.525 26.15C152.895 26.15 152.275 26.085 151.665 25.955C151.055 25.825 150.49 25.63 149.97 25.37L150.6 23.735C151.45 24.145 152.39 24.35 153.42 24.35C153.97 24.35 154.4 24.27 154.71 24.11C155.03 23.94 155.19 23.705 155.19 23.405C155.19 23.145 155.08 22.95 154.86 22.82C154.64 22.68 154.32 22.61 153.9 22.61H152.25V21.155H153.69C154.1 21.155 154.415 21.09 154.635 20.96C154.855 20.83 154.965 20.64 154.965 20.39C154.965 20.13 154.825 19.93 154.545 19.79C154.275 19.65 153.885 19.58 153.375 19.58C152.595 19.58 151.745 19.765 150.825 20.135L150.255 18.515C151.375 18.025 152.465 17.78 153.525 17.78C154.255 17.78 154.905 17.87 155.475 18.05C156.055 18.23 156.51 18.495 156.84 18.845C157.17 19.185 157.335 19.585 157.335 20.045C157.335 20.425 157.22 20.77 156.99 21.08C156.76 21.38 156.445 21.62 156.045 21.8ZM163.927 18.485C164.697 18.485 165.372 18.645 165.952 18.965C166.532 19.275 166.977 19.715 167.287 20.285C167.607 20.855 167.767 21.515 167.767 22.265C167.767 23.035 167.577 23.72 167.197 24.32C166.827 24.91 166.307 25.37 165.637 25.7C164.967 26.02 164.207 26.18 163.357 26.18C161.947 26.18 160.837 25.73 160.027 24.83C159.227 23.92 158.827 22.59 158.827 20.84C158.827 19.22 159.177 17.93 159.877 16.97C160.587 16 161.672 15.365 163.132 15.065L166.972 14.3L167.287 16.31L163.897 16.985C162.977 17.165 162.292 17.465 161.842 17.885C161.402 18.305 161.142 18.9 161.062 19.67C161.412 19.29 161.832 19 162.322 18.8C162.812 18.59 163.347 18.485 163.927 18.485ZM163.372 24.365C163.972 24.365 164.452 24.17 164.812 23.78C165.182 23.39 165.367 22.895 165.367 22.295C165.367 21.685 165.182 21.2 164.812 20.84C164.452 20.48 163.972 20.3 163.372 20.3C162.762 20.3 162.272 20.48 161.902 20.84C161.532 21.2 161.347 21.685 161.347 22.295C161.347 22.905 161.537 23.405 161.917 23.795C162.297 24.175 162.782 24.365 163.372 24.365ZM174.109 17.81C174.859 17.81 175.539 17.985 176.149 18.335C176.769 18.675 177.254 19.16 177.604 19.79C177.954 20.41 178.129 21.135 178.129 21.965C178.129 22.795 177.954 23.525 177.604 24.155C177.254 24.775 176.769 25.26 176.149 25.61C175.539 25.95 174.859 26.12 174.109 26.12C173.079 26.12 172.269 25.795 171.679 25.145V28.91H169.339V17.93H171.574V18.86C172.154 18.16 172.999 17.81 174.109 17.81ZM173.704 24.2C174.304 24.2 174.794 24 175.174 23.6C175.564 23.19 175.759 22.645 175.759 21.965C175.759 21.285 175.564 20.745 175.174 20.345C174.794 19.935 174.304 19.73 173.704 19.73C173.104 19.73 172.609 19.935 172.219 20.345C171.839 20.745 171.649 21.285 171.649 21.965C171.649 22.645 171.839 23.19 172.219 23.6C172.609 24 173.104 24.2 173.704 24.2ZM182.773 17.81C184.023 17.81 184.983 18.11 185.653 18.71C186.323 19.3 186.658 20.195 186.658 21.395V26H184.468V24.995C184.028 25.745 183.208 26.12 182.008 26.12C181.388 26.12 180.848 26.015 180.388 25.805C179.938 25.595 179.593 25.305 179.353 24.935C179.113 24.565 178.993 24.145 178.993 23.675C178.993 22.925 179.273 22.335 179.833 21.905C180.403 21.475 181.278 21.26 182.458 21.26H184.318C184.318 20.75 184.163 20.36 183.853 20.09C183.543 19.81 183.078 19.67 182.458 19.67C182.028 19.67 181.603 19.74 181.183 19.88C180.773 20.01 180.423 20.19 180.133 20.42L179.293 18.785C179.733 18.475 180.258 18.235 180.868 18.065C181.488 17.895 182.123 17.81 182.773 17.81ZM182.593 24.545C182.993 24.545 183.348 24.455 183.658 24.275C183.968 24.085 184.188 23.81 184.318 23.45V22.625H182.713C181.753 22.625 181.273 22.94 181.273 23.57C181.273 23.87 181.388 24.11 181.618 24.29C181.858 24.46 182.183 24.545 182.593 24.545ZM188.69 17.93H191.015V21.08H194.525V17.93H196.865V26H194.525V22.985H191.015V26H188.69V17.93ZM199.105 17.93H201.43V21.08H204.94V17.93H207.28V26H204.94V22.985H201.43V26H199.105V17.93ZM213.301 26.12C212.451 26.12 211.686 25.945 211.006 25.595C210.336 25.235 209.811 24.74 209.431 24.11C209.051 23.48 208.861 22.765 208.861 21.965C208.861 21.165 209.051 20.45 209.431 19.82C209.811 19.19 210.336 18.7 211.006 18.35C211.686 17.99 212.451 17.81 213.301 17.81C214.151 17.81 214.911 17.99 215.581 18.35C216.251 18.7 216.776 19.19 217.156 19.82C217.536 20.45 217.726 21.165 217.726 21.965C217.726 22.765 217.536 23.48 217.156 24.11C216.776 24.74 216.251 25.235 215.581 25.595C214.911 25.945 214.151 26.12 213.301 26.12ZM213.301 24.2C213.901 24.2 214.391 24 214.771 23.6C215.161 23.19 215.356 22.645 215.356 21.965C215.356 21.285 215.161 20.745 214.771 20.345C214.391 19.935 213.901 19.73 213.301 19.73C212.701 19.73 212.206 19.935 211.816 20.345C211.426 20.745 211.231 21.285 211.231 21.965C211.231 22.645 211.426 23.19 211.816 23.6C212.206 24 212.701 24.2 213.301 24.2ZM227.18 21.995C227.18 22.025 227.165 22.235 227.135 22.625H221.03C221.14 23.125 221.4 23.52 221.81 23.81C222.22 24.1 222.73 24.245 223.34 24.245C223.76 24.245 224.13 24.185 224.45 24.065C224.78 23.935 225.085 23.735 225.365 23.465L226.61 24.815C225.85 25.685 224.74 26.12 223.28 26.12C222.37 26.12 221.565 25.945 220.865 25.595C220.165 25.235 219.625 24.74 219.245 24.11C218.865 23.48 218.675 22.765 218.675 21.965C218.675 21.175 218.86 20.465 219.23 19.835C219.61 19.195 220.125 18.7 220.775 18.35C221.435 17.99 222.17 17.81 222.98 17.81C223.77 17.81 224.485 17.98 225.125 18.32C225.765 18.66 226.265 19.15 226.625 19.79C226.995 20.42 227.18 21.155 227.18 21.995ZM222.995 19.58C222.465 19.58 222.02 19.73 221.66 20.03C221.3 20.33 221.08 20.74 221 21.26H224.975C224.895 20.75 224.675 20.345 224.315 20.045C223.955 19.735 223.515 19.58 222.995 19.58Z" fill="white"/>
<path d="M21 11V31" stroke="white" stroke-width="4"/>
<path d="M31 20.9974C28.5003 20.9924 11 21.002 11 21.002" stroke="white" stroke-width="4"/>
</svg>
