<svg width="16" height="16" viewBox="0 0 16 16" fill="none" xmlns="http://www.w3.org/2000/svg">
<path d="M10.762 1.33333L14.6667 5.23867V10.7613L10.762 14.6667H5.238L1.33333 10.7613V5.23867L5.238 1.33333H10.762ZM11.314 0H4.686L0 4.686V11.3133L4.686 16H11.3133L16 11.314V4.686L11.314 0ZM7 4H9L8.33333 9.33333H7.66667L7 4ZM8 12.1667C7.54 12.1667 7.16667 11.7933 7.16667 11.3333C7.16667 10.8733 7.54 10.5 8 10.5C8.46 10.5 8.83333 10.8733 8.83333 11.3333C8.83333 11.7933 8.46 12.1667 8 12.1667Z" fill="white"/>
</svg>
